<svg xmlns="http://www.w3.org/2000/svg" viewBox="0 0 600 400">
  <rect width="600" height="400" fill="#f00"/>
  <rect width="240" height="400" fill="#060"/>
  <g fill="#ff0" fill-rule="evenodd" stroke="#000" stroke-width="0.573">
    <path d="M318.665 208.685c0 26.361-21.366 47.727-47.727 47.727s-47.727-21.366-47.727-47.727 21.366-47.727 47.727-47.727 47.727 21.366 47.727 47.727z"/>
    <path d="M270.938 160.957c-26.36 0-47.727 21.367-47.727 47.728 0 26.36 21.366 47.727 47.727 47.727 26.36 0 47.727-21.366 47.727-47.727 0-26.36-21.366-47.728-47.727-47.728zm0 7.294c22.258 0 40.433 18.175 40.433 40.434 0 22.258-18.175 40.433-40.433 40.433-22.259 0-40.434-18.175-40.434-40.433 0-22.259 18.175-40.434 40.434-40.434z"/>
    <path d="M270.938 180.618c-15.465 0-28.067 12.602-28.067 28.067s12.602 28.067 28.067 28.067 28.067-12.602 28.067-28.067-12.602-28.067-28.067-28.067zm0 4.01c13.287 0 24.057 10.77 24.057 24.057s-10.77 24.057-24.057 24.057-24.057-10.77-24.057-24.057 10.77-24.057 24.057-24.057z"/>
  </g>
</svg> 